<svg xmlns="http://www.w3.org/2000/svg" width="152" height="157" viewBox="0 0 152 157">
  <g id="Group_1" data-name="Group 1" transform="translate(-717 -516)">
    <g id="Rectangle_1" data-name="Rectangle 1" transform="translate(717 540)" fill="#fff" stroke="#707070" stroke-linecap="round" stroke-width="8">
      <rect width="152" height="133" rx="17" stroke="none"/>
      <rect x="4" y="4" width="144" height="125" rx="13" fill="none"/>
    </g>
    <rect id="Rectangle_2" data-name="Rectangle 2" width="14" height="48" rx="7" transform="translate(754 516)" fill="#707070"/>
    <rect id="Rectangle_3" data-name="Rectangle 3" width="14" height="48" rx="7" transform="translate(820 516)" fill="#707070"/>
    <g id="Rectangle_4" data-name="Rectangle 4" transform="translate(739 589)" fill="#707070" stroke="#707070" stroke-width="1">
      <rect width="23" height="23" stroke="none"/>
      <rect x="0.5" y="0.5" width="22" height="22" fill="none"/>
    </g>
    <g id="Rectangle_7" data-name="Rectangle 7" transform="translate(782 589)" fill="#707070" stroke="#707070" stroke-width="1">
      <rect width="23" height="23" stroke="none"/>
      <rect x="0.5" y="0.5" width="22" height="22" fill="none"/>
    </g>
    <g id="Rectangle_5" data-name="Rectangle 5" transform="translate(739 627)" fill="#707070" stroke="#707070" stroke-width="1">
      <rect width="23" height="23" stroke="none"/>
      <rect x="0.5" y="0.5" width="22" height="22" fill="none"/>
    </g>
    <g id="Rectangle_6" data-name="Rectangle 6" transform="translate(782 627)" fill="#707070" stroke="#707070" stroke-width="1">
      <rect width="23" height="23" stroke="none"/>
      <rect x="0.5" y="0.5" width="22" height="22" fill="none"/>
    </g>
    <g id="Rectangle_8" data-name="Rectangle 8" transform="translate(824 627)" fill="#707070" stroke="#707070" stroke-width="1">
      <rect width="23" height="23" stroke="none"/>
      <rect x="0.5" y="0.5" width="22" height="22" fill="none"/>
    </g>
  </g>
</svg>
