<svg xmlns="http://www.w3.org/2000/svg" width="384.941" height="71.117" viewBox="0 0 384.941 71.117">
  <g id="Group_11" data-name="Group 11" transform="translate(-49.559 -493.87)">
    <path id="Union_1" data-name="Union 1" d="M36.592,54.592V0l8.557,27.444H73.183L50.461,44.264l8.853,26.854ZM22.722,44.264,0,27.444H28.034L36.592,0V54.592L13.869,71.117Z" transform="translate(49.559 493.87)" fill="#ffd500"/>
    <path id="Union_2" data-name="Union 2" d="M36.592,54.592V0l8.557,27.444H73.183L50.461,44.264l8.853,26.854ZM22.722,44.264,0,27.444H28.034L36.592,0V54.592L13.869,71.117Z" transform="translate(127.498 493.87)" fill="#ffd500"/>
    <path id="Union_3" data-name="Union 3" d="M36.592,54.592V0l8.557,27.444H73.183L50.461,44.264l8.853,26.854ZM22.722,44.264,0,27.444H28.034L36.592,0V54.592L13.869,71.117Z" transform="translate(205.438 493.87)" fill="#ffd500"/>
    <path id="Union_4" data-name="Union 4" d="M36.592,54.592V0l8.557,27.444H73.183L50.461,44.264l8.853,26.854ZM22.722,44.264,0,27.444H28.034L36.592,0V54.592L13.869,71.117Z" transform="translate(283.378 493.87)" fill="#ffd500"/>
    <path id="Union_5" data-name="Union 5" d="M36.592,54.592V0l8.557,27.444H73.183L50.461,44.264l8.853,26.854ZM22.722,44.264,0,27.444H28.034L36.592,0V54.592L13.869,71.117Z" transform="translate(361.317 493.87)" fill="#ffd500"/>
  </g>
</svg>
