<svg xmlns="http://www.w3.org/2000/svg" width="307.002" height="71.117" viewBox="0 0 307.002 71.117">
  <g id="Group_12" data-name="Group 12" transform="translate(-49.559 -595.649)">
    <path id="Union_10" data-name="Union 10" d="M36.592,54.592V0l8.557,27.444H73.183L50.461,44.264l8.853,26.854ZM22.722,44.264,0,27.444H28.034L36.592,0V54.592L13.869,71.117Z" transform="translate(49.559 595.649)" fill="#ffd500"/>
    <path id="Union_9" data-name="Union 9" d="M36.592,54.592V0l8.557,27.444H73.183L50.461,44.264l8.853,26.854ZM22.722,44.264,0,27.444H28.034L36.592,0V54.592L13.869,71.117Z" transform="translate(127.498 595.649)" fill="#ffd500"/>
    <path id="Union_8" data-name="Union 8" d="M36.592,54.592V0l8.557,27.444H73.183L50.461,44.264l8.853,26.854ZM22.722,44.264,0,27.444H28.034L36.592,0V54.592L13.869,71.117Z" transform="translate(205.438 595.649)" fill="#ffd500"/>
    <path id="Union_6" data-name="Union 6" d="M36.592,54.592V0l8.557,27.444H73.183L50.461,44.264l8.853,26.854ZM22.722,44.264,0,27.444H28.034L36.592,0V54.592L13.869,71.117Z" transform="translate(283.378 595.649)" fill="#ffd500"/>
  </g>
</svg>
