<svg xmlns="http://www.w3.org/2000/svg" width="237.367" height="244.41" viewBox="0 0 237.367 244.41">
  <g id="Group_20" data-name="Group 20" transform="translate(-1554.211 407.696)">
    <path id="Path_56" data-name="Path 56" d="M1582.555-411.122s4.59-101.6,100.06-101.6,101.6,101.6,101.6,101.6Z" transform="translate(-10.489 117.482)" fill="#343434"/>
    <path id="Path_57" data-name="Path 57" d="M1562.578-327.728h229.367" transform="translate(-4.367 54.766)" fill="none" stroke="#343434" stroke-linecap="round" stroke-width="8"/>
    <path id="Path_58" data-name="Path 58" d="M1635.422-222.53c-7.7-29.248,0-61.575,0-61.575h82.356s21.552,10.006,0,23.091-12.315,8.467-12.315,8.467,30.018-3.848,33.866-16.933,61.575-14.624,61.575-14.624,20.781,12.315,0,23.091S1643.119-193.282,1635.422-222.53Z" transform="translate(-25.642 47.422)" fill="#343434"/>
    <path id="Path_59" data-name="Path 59" d="M1590.323-284.105v59.958" transform="translate(-12.869 52.362)" fill="none" stroke="#343434" stroke-linecap="round" stroke-width="17"/>
    <ellipse id="Ellipse_7" data-name="Ellipse 7" cx="12.047" cy="12.8" rx="12.047" ry="12.8" transform="translate(1662.143 -407.696)" fill="#343434"/>
  </g>
</svg>
