<svg xmlns="http://www.w3.org/2000/svg" width="203.521" height="188.038" viewBox="0 0 203.521 188.038">
  <g id="Group_15" data-name="Group 15" transform="translate(-957.267 404.546)">
    <path id="Path_53" data-name="Path 53" d="M815.813-389.422l60.642-46.86s9.065-40.434-11.2-41.4-55.976,22.2-55.976,22.2l-8.686-22.2,75.865-32.814,57.765,99.036s-50.333,11.136-68.968,25.241S815.813-389.422,815.813-389.422Z" transform="translate(176.655 105.949)" fill="#343434"/>
    <ellipse id="Ellipse_5" data-name="Ellipse 5" cx="27.666" cy="27.666" rx="27.666" ry="27.666" transform="translate(1105.456 -367.306)" fill="#343434"/>
    <path id="Path_54" data-name="Path 54" d="M799.827-494.436s38.895,36.385,82.806,8.783,85.316,10.037,85.316,10.037" transform="translate(170.376 227.031)" fill="none" stroke="#343434" stroke-linecap="round" stroke-width="8"/>
    <path id="Path_55" data-name="Path 55" d="M799.827-494.436s38.895,36.385,82.806,8.783,85.316,10.037,85.316,10.037" transform="translate(160.173 254.697)" fill="none" stroke="#343434" stroke-linecap="round" stroke-width="8"/>
  </g>
</svg>
