<svg xmlns="http://www.w3.org/2000/svg" width="99.592" height="143.251" viewBox="0 0 99.592 143.251">
  <g id="Group_373" data-name="Group 373" transform="translate(-745.408 4)">
    <path id="Union_4" data-name="Union 4" d="M6.05,68.846l-.179-.6A45.46,45.46,0,0,1,.93,55.026a46.246,46.246,0,0,1,0-18.459A45.53,45.53,0,0,1,7.821,20.191,45.935,45.935,0,0,1,27.97,3.6,45.537,45.537,0,0,1,36.566.93a46.246,46.246,0,0,1,18.459,0A45.532,45.532,0,0,1,71.4,7.821,45.926,45.926,0,0,1,87.993,27.97a45.567,45.567,0,0,1,2.668,8.6,46.246,46.246,0,0,1,0,18.459,45.475,45.475,0,0,1-4.706,12.8l-.3,1.023L44.283,131.768Z" transform="translate(749.408 0)" fill="none" stroke="#707070" stroke-width="8"/>
    <g id="Path_311" data-name="Path 311" transform="translate(765.531 12.911)" fill="none">
      <path d="M29.672,0A29.672,29.672,0,1,1,0,29.672,29.672,29.672,0,0,1,29.672,0Z" stroke="none"/>
      <path d="M 29.67226219177246 6.999996185302734 C 17.17073822021484 6.999996185302734 7 17.17073440551758 7 29.67225646972656 C 7 42.17378234863281 17.17073822021484 52.34451675415039 29.67226219177246 52.34451675415039 C 42.17378616333008 52.34451675415039 52.34452438354492 42.17378234863281 52.34452438354492 29.67225646972656 C 52.34452438354492 17.17073440551758 42.17378616333008 6.999996185302734 29.67226219177246 6.999996185302734 M 29.67226219177246 -3.814697265625e-06 C 46.05979919433594 -3.814697265625e-06 59.34452438354492 13.28471755981445 59.34452438354492 29.67225646972656 C 59.34452438354492 46.05979537963867 46.05979919433594 59.34451675415039 29.67226219177246 59.34451675415039 C 13.28472518920898 59.34451675415039 0 46.05979537963867 0 29.67225646972656 C 0 13.28471755981445 13.28472518920898 -3.814697265625e-06 29.67226219177246 -3.814697265625e-06 Z" stroke="none" fill="#003580"/>
    </g>
  </g>
</svg>
