<svg xmlns="http://www.w3.org/2000/svg" width="91.592" height="131.768" viewBox="0 0 91.592 131.768">
  <g id="Group_14" data-name="Group 14" transform="translate(-624 -371)">
    <g id="Group_373" data-name="Group 373" transform="translate(-125.408 371)">
      <path id="Union_4" data-name="Union 4" d="M6.05,68.846l-.179-.6A45.46,45.46,0,0,1,.93,55.026a46.246,46.246,0,0,1,0-18.459A45.793,45.793,0,0,1,36.566.93a46.246,46.246,0,0,1,18.459,0A45.77,45.77,0,0,1,90.661,36.57a46.246,46.246,0,0,1,0,18.459,45.475,45.475,0,0,1-4.706,12.8l-.3,1.023L44.283,131.768Z" transform="translate(749.408)" fill="#003580"/>
    </g>
    <circle id="Ellipse_4" data-name="Ellipse 4" cx="21.5" cy="21.5" r="21.5" transform="translate(648 394)" fill="#fff"/>
  </g>
</svg>
