<svg xmlns="http://www.w3.org/2000/svg" width="194.848" height="185.777" viewBox="0 0 194.848 185.777">
  <g id="Group_30" data-name="Group 30" transform="translate(-2946.455 92.777)">
    <g id="Group_29" data-name="Group 29">
      <path id="Path_70" data-name="Path 70" d="M3013.86-21.641s19.942-72.136,85.121-72.136" transform="translate(-55.103 11)" fill="none" stroke="#343434" stroke-linecap="round" stroke-width="20"/>
      <path id="Path_71" data-name="Path 71" d="M3098.981-21.641s-19.942-72.136-85.121-72.136" transform="translate(30.019 11)" fill="none" stroke="#343434" stroke-linecap="round" stroke-width="20"/>
    </g>
    <g id="Group_27" data-name="Group 27" transform="translate(-31.621 -1)">
      <path id="Path_73" data-name="Path 73" d="M3013.86-48.438s12.534-45.339,53.5-45.339" transform="translate(8.14 57)" fill="none" stroke="#343434" stroke-linecap="round" stroke-width="20"/>
      <path id="Path_72" data-name="Path 72" d="M3067.36-48.438s-12.534-45.339-53.5-45.339" transform="translate(61.64 57)" fill="none" stroke="#343434" stroke-linecap="round" stroke-width="20"/>
    </g>
    <g id="Group_28" data-name="Group 28" transform="translate(-4.871 44.339)">
      <path id="Path_73-2" data-name="Path 73" d="M3013.86-71.108s6.267-22.669,26.75-22.669" transform="translate(8.14 57)" fill="none" stroke="#343434" stroke-linecap="round" stroke-width="20"/>
      <path id="Path_72-2" data-name="Path 72" d="M3040.61-71.108s-6.267-22.669-26.75-22.669" transform="translate(34.89 57)" fill="none" stroke="#343434" stroke-linecap="round" stroke-width="20"/>
    </g>
    <circle id="Ellipse_14" data-name="Ellipse 14" cx="21.5" cy="21.5" r="21.5" transform="translate(3022 50)" fill="#343434"/>
  </g>
</svg>
